 http://desisnap.com/image.php?id=992E_50535542&jpg



General
Format : Matroska
File size : 616 MiB || 699 MiB || 710 MiB || 797 MiB
Duration : 1h 46mn || 1h 59mn || 1h 59mn || 2h 6mn (Credits Removed)
Overall bit rate : 812 Kbps || 820 Kbps || 831 Kbps || 881 Kbps
Writing application : mkvmerge v3.4.0


Video
Format : AVC
Format profile : High@L4.0
Width : 1 280 pixels
Height : 528 pixels || 528 pixels || 544 pixels || 536 pixels
Display aspect ratio : 2.40:1 || 2.40:1 || 2.35:1 || 2.40:1
Frame rate mode : Constant
Frame rate : 23.976 fps


Audio 1
Format : AAC
Format profile : LC
Bit rate mode : Variable
Bit rate : 107 Kbps || 119 Kbps || 132 Kbps || 132 Kbps
Maximum bit rate : 131 Kbps | | 175 Kbps | | 179 Kbps | | 194 Kbps
Channel(s) : 2 channels
Sampling rate : 48.0 KHz
Stream size : 82.5 MiB || 103 MiB || 114 MiB || 119 MiB
Language : Hindi
Default : Yes



Audio 2
Format : AAC
Format profile : HE-AAC / LC
Bit rate mode : Variable
Bit rate : 36 Kbps || 36 Kbps || 36.4 Kbps || 43 Kbps
Maximum bit rate : 55.2 Kbps || 66.3 Kbps || 65.8 Kbps || 85.5 Kbps
Channel(s) : 2 channels
Sampling rate : 48.0 KHz / 24.0 KHz
Stream size : 28.3 MiB | | 31.8 MiB | | 31.8 MiB | | 44.6 MiB
Language : English


screenshots
 
http://desisnap.com/image.php?id=CC68_50535476&jpg
 
http://desisnap.com/image.php?id=616B_50535476&jpg
 
http://desisnap.com/image.php?id=343A_50535476&jpg
 
http://desisnap.com/image.php?id=8A48_50535476&jpg
 
http://desisnap.com/image.php?id=4C64_50535476&jpg